<svg width="181" height="47" viewBox="0 0 181 47" fill="none" xmlns="http://www.w3.org/2000/svg">
<path d="M12.3078 3.7H17.7078V10.45C17.7078 22.35 13.6078 33.1 4.40781 37.35L0.457813 31.85C8.50781 28.35 12.3078 19.45 12.3078 10.45V3.7ZM13.6078 3.7H19.0078V10.45C19.0078 19 22.6578 27.5 30.5578 30.9L26.6578 36.25C17.7078 32.15 13.6078 21.85 13.6078 10.45V3.7ZM32.7578 0.099997H39.4578V46.55H32.7578V0.099997ZM80.3039 0.149999H86.6539V46.45H80.3039V0.149999ZM74.2539 18H81.9539V23.3H74.2539V18ZM69.9539 0.949998H76.1539V44.25H69.9539V0.949998ZM48.8039 5.25H55.4539V32H48.8039V5.25ZM48.8039 29.5H52.0039C56.4539 29.5 61.6539 29.25 67.4039 28.15L68.0539 33.85C62.0039 34.95 56.7039 35.2 52.0039 35.2H48.8039V29.5ZM125.25 0.099997H131.85V46.55H125.25V0.099997ZM114.75 16.4H127.15V21.75H114.75V16.4ZM94.7 3.75H101.3V14.95H110.4V3.75H116.95V35.65H94.7V3.75ZM101.3 20.1V30.3H110.4V20.1H101.3ZM156.196 2.8H161.996V6.15C161.996 16.2 154.846 25.1 142.846 27.45L139.996 21.95C150.446 20.15 156.196 12.8 156.196 6.15V2.8ZM157.546 2.8H163.296V6.15C163.296 12.95 168.996 20.15 179.496 21.95L176.646 27.45C164.646 25.1 157.546 16.35 157.546 6.15V2.8ZM139.046 35.4H180.946V40.8H139.046V35.4Z" fill="#006933"/>
</svg>
