<svg width="410" height="66" viewBox="0 0 410 66" fill="none" xmlns="http://www.w3.org/2000/svg">
<g filter="url(#filter0_d_1_11)">
<path d="M47.5352 0.409999H56.4252V65.23H47.5352V0.409999ZM39.3452 24.84H50.0552V32.26H39.3452V24.84ZM20.0252 8.32H28.9152C28.9152 26.59 23.5952 41.36 5.46523 51.93L0.0752344 45.49C14.8452 36.74 20.0252 25.82 20.0252 10.28V8.32ZM3.36523 8.32H22.7552V15.81H3.36523V8.32ZM33.1852 2.09H41.8652V62.43H33.1852V2.09ZM67.1998 3.28H76.4398V10.91H89.1098V3.28H98.3498V31.63H67.1998V3.28ZM76.4398 17.91V24.35H89.1098V17.91H76.4398ZM107.03 0.409999H116.34V33.31H107.03V0.409999ZM112.56 12.87H124.88V20.43H112.56V12.87ZM73.4998 35.83H116.34V53.47H82.8798V61.17H73.6398V46.82H107.17V42.97H73.4998V35.83ZM73.6398 57.6H118.23V64.81H73.6398V57.6ZM148.775 5.1H176.495V12.59H148.775V5.1ZM156.755 20.22H165.995V36.46H156.755V20.22ZM172.855 5.1H182.025V9.16C182.025 13.71 182.025 20.15 180.485 28.2L171.455 27.22C172.855 19.24 172.855 13.64 172.855 9.16V5.1ZM188.325 0.409999H197.705V48.92H188.325V0.409999ZM193.995 20.15H205.405V27.78H193.995V20.15ZM154.445 56.69H199.735V64.11H154.445V56.69ZM154.445 44.58H163.755V59H154.445V44.58ZM145.835 40.24L144.995 32.89C156.195 32.89 171.805 32.68 184.825 30.86L185.385 37.44C172.015 39.96 156.965 40.24 145.835 40.24ZM212.75 32.96H217.72C228.71 32.96 235.5 32.68 243.41 31.28L244.39 38.7C236.27 40.17 229.06 40.45 217.72 40.45H212.75V32.96ZM212.68 4.82H241.17V25.75H221.99V37.44H212.75V18.75H231.93V12.24H212.68V4.82ZM255.24 0.479998H264.55V48.36H255.24V0.479998ZM244.88 10.21H256.99V17.56H244.88V10.21ZM221.29 56.55H266.16V64.04H221.29V56.55ZM221.29 44.65H230.53V59.35H221.29V44.65ZM244.88 24.84H256.99V32.26H244.88V24.84ZM290.966 50.04H349.626V57.67H290.966V50.04ZM315.326 35.62H324.566V52.07H315.326V35.62ZM314.976 3.98H323.096V8.67C323.096 22.46 313.086 34.64 296.146 37.72L292.296 29.95C307.066 27.57 314.976 17.63 314.976 8.67V3.98ZM316.796 3.98H324.916V8.67C324.916 17.84 332.826 27.57 347.666 29.95L343.816 37.72C326.806 34.57 316.796 22.67 316.796 8.67V3.98ZM370.48 3.35H378.18V9.58C378.18 21.83 372.23 32.96 359.56 37.02L355.01 29.67C365.93 26.17 370.48 17.77 370.48 9.58V3.35ZM372.37 3.35H380V9.58C380 17.56 384.48 25.4 395.05 28.62L390.5 35.9C378.11 31.98 372.37 21.62 372.37 9.58V3.35ZM364.95 41.92H409.19V65.23H399.81V49.34H364.95V41.92ZM399.81 0.409999H409.19V39.05H399.81V0.409999Z" fill="#003319"/>
</g>
<defs>
<filter id="filter0_d_1_11" x="0.0751953" y="0.409912" width="409.115" height="64.8201" filterUnits="userSpaceOnUse" color-interpolation-filters="sRGB">
<feFlood flood-opacity="0" result="BackgroundImageFix"/>
<feColorMatrix in="SourceAlpha" type="matrix" values="0 0 0 0 0 0 0 0 0 0 0 0 0 0 0 0 0 0 127 0" result="hardAlpha"/>
<feOffset/>
<feComposite in2="hardAlpha" operator="out"/>
<feColorMatrix type="matrix" values="0 0 0 0 0 0 0 0 0 0 0 0 0 0 0 0 0 0 1 0"/>
<feBlend mode="normal" in2="BackgroundImageFix" result="effect1_dropShadow_1_11"/>
<feBlend mode="normal" in="SourceGraphic" in2="effect1_dropShadow_1_11" result="shape"/>
</filter>
</defs>
</svg>
