<svg width="415" height="66" viewBox="0 0 415 66" fill="none" xmlns="http://www.w3.org/2000/svg">
<g filter="url(#filter0_d_4_23)">
<path d="M16.4752 10.63H23.8252V17.91C23.8252 32.54 17.6652 47.45 5.76523 53.05L0.515234 45.7C11.2252 40.66 16.4752 28.55 16.4752 17.91V10.63ZM18.4352 10.63H25.7852V17.91C25.7852 27.71 30.8252 39.19 41.4652 44.09L36.3552 51.44C24.4552 45.91 18.4352 31.7 18.4352 17.91V10.63ZM3.03523 6.64H38.5952V14.27H3.03523V6.64ZM43.3552 0.409999H52.7352V65.23H43.3552V0.409999ZM50.6352 25.12H62.1152V32.82H50.6352V25.12ZM90.3198 7.62H98.3698V9.51C98.3698 20.92 89.0598 30.23 72.6098 32.47L69.1798 25.19C83.4598 23.44 90.3198 16.16 90.3198 9.51V7.62ZM92.9798 7.62H101.03V9.51C101.03 16.16 107.89 23.44 122.17 25.19L118.81 32.47C102.29 30.23 92.9798 20.92 92.9798 9.51V7.62ZM90.8098 41.5H100.05V65.3H90.8098V41.5ZM66.3798 36.18H124.97V43.6H66.3798V36.18ZM71.5598 3.7H119.65V11.05H71.5598V3.7ZM153.835 57.18H199.335V64.53H153.835V57.18ZM153.835 42.55H198.705V49.97H163.075V62.22H153.835V42.55ZM171.475 34.92H180.715V44.72H171.475V34.92ZM154.115 2.58H198.145V25.05H154.115V2.58ZM188.975 9.93H163.215V17.77H188.975V9.93ZM146.905 29.46H205.495V36.88H146.905V29.46ZM218.58 17.91H263.52V25.26H218.58V17.91ZM211.3 31.98H270.03V39.4H211.3V31.98ZM218.58 2.72H227.82V21.55H218.58V2.72ZM217.95 56.41H263.87V63.83H217.95V56.41ZM217.95 44.58H227.26V58.37H217.95V44.58ZM336.416 0.409999H345.796V33.59H336.416V0.409999ZM302.536 36.18H345.796V53.61H311.776V60.4H302.676V47.1H336.556V43.25H302.536V36.18ZM302.676 57.67H347.406V64.81H302.676V57.67ZM307.646 6.57H315.206V9.09C315.206 20.57 309.116 30.79 296.446 34.36L292.176 27.08C302.956 24.07 307.646 16.51 307.646 9.09V6.57ZM309.676 6.57H317.166V9.09C317.166 15.95 321.786 23.02 332.356 25.89L328.086 33.03C315.626 29.67 309.676 19.94 309.676 9.09V6.57ZM294.626 3.35H329.906V10.7H294.626V3.35ZM356.29 32.4H414.95V39.82H356.29V32.4ZM381.7 37.09H391.08V50.74H381.7V37.09ZM363.5 3.14H407.53V27.22H363.5V3.14ZM398.36 10.42H372.6V19.94H398.36V10.42ZM363.08 56.69H408.51V64.11H363.08V56.69ZM363.08 45.28H372.32V59.14H363.08V45.28Z" fill="#003319"/>
</g>
<defs>
<filter id="filter0_d_4_23" x="0.515137" y="0.410004" width="414.435" height="64.89" filterUnits="userSpaceOnUse" color-interpolation-filters="sRGB">
<feFlood flood-opacity="0" result="BackgroundImageFix"/>
<feColorMatrix in="SourceAlpha" type="matrix" values="0 0 0 0 0 0 0 0 0 0 0 0 0 0 0 0 0 0 127 0" result="hardAlpha"/>
<feOffset/>
<feComposite in2="hardAlpha" operator="out"/>
<feColorMatrix type="matrix" values="0 0 0 0 0 0 0 0 0 0 0 0 0 0 0 0 0 0 1 0"/>
<feBlend mode="normal" in2="BackgroundImageFix" result="effect1_dropShadow_4_23"/>
<feBlend mode="normal" in="SourceGraphic" in2="effect1_dropShadow_4_23" result="shape"/>
</filter>
</defs>
</svg>
