<svg width="181" height="47" viewBox="0 0 181 47" fill="none" xmlns="http://www.w3.org/2000/svg">
<path d="M33.1078 0.099997H39.8578V46.55H33.1078V0.099997ZM24.8078 9.35H36.8078V14.75H24.8078V9.35ZM24.8078 20.6H36.8078V26.1H24.8078V20.6ZM11.7578 3.7H17.1078V10.4C17.1078 22.05 13.1578 32.75 4.50781 37.1L0.357813 31.8C8.25781 28.15 11.7578 19.2 11.7578 10.4V3.7ZM13.1578 3.7H18.4578V10.4C18.4578 19.3 21.8078 27.9 29.4578 31.35L25.4578 36.65C16.8078 32.4 13.1578 22.05 13.1578 10.4V3.7ZM52.1539 14.3H84.4039V18.8H52.1539V14.3ZM52.1539 1.1H84.0539V5.6H58.7539V16.45H52.1539V1.1ZM56.9039 7.75H83.0039V12.05H56.9039V7.75ZM47.1039 20.85H88.8039V25.75H47.1039V20.85ZM51.8039 27.9H83.8039V39.15H58.4039V43.8H51.8539V34.75H77.2539V32.55H51.8039V27.9ZM51.8539 41.5H85.0039V46.15H51.8539V41.5ZM125.25 0.099997H131.85V46.55H125.25V0.099997ZM114.75 16.4H127.15V21.75H114.75V16.4ZM94.7 3.75H101.3V14.95H110.4V3.75H116.95V35.65H94.7V3.75ZM101.3 20.1V30.3H110.4V20.1H101.3ZM156.196 2.8H161.996V6.15C161.996 16.2 154.846 25.1 142.846 27.45L139.996 21.95C150.446 20.15 156.196 12.8 156.196 6.15V2.8ZM157.546 2.8H163.296V6.15C163.296 12.95 168.996 20.15 179.496 21.95L176.646 27.45C164.646 25.1 157.546 16.35 157.546 6.15V2.8ZM139.046 35.4H180.946V40.8H139.046V35.4Z" fill="#006933"/>
</svg>
