<svg width="861" height="94" viewBox="0 0 861 94" fill="none" xmlns="http://www.w3.org/2000/svg">
<g filter="url(#filter0_d_1_36)">
<path d="M65.5906 0.199994H79.0906V93.1H65.5906V0.199994ZM48.9906 18.7H72.9906V29.5H48.9906V18.7ZM48.9906 41.2H72.9906V52.2H48.9906V41.2ZM22.8906 7.4H33.5906V20.8C33.5906 44.1 25.6906 65.5 8.39063 74.2L0.0906251 63.6C15.8906 56.3 22.8906 38.4 22.8906 20.8V7.4ZM25.6906 7.4H36.2906V20.8C36.2906 38.6 42.9906 55.8 58.2906 62.7L50.2906 73.3C32.9906 64.8 25.6906 44.1 25.6906 20.8V7.4ZM103.683 28.6H168.183V37.6H103.683V28.6ZM103.683 2.2H167.483V11.2H116.883V32.9H103.683V2.2ZM113.183 15.5H165.383V24.1H113.183V15.5ZM93.5828 41.7H176.983V51.5H93.5828V41.7ZM102.983 55.8H166.983V78.3H116.183V87.6H103.083V69.5H153.883V65.1H102.983V55.8ZM103.083 83H169.383V92.3H103.083V83ZM273.02 0.199994H286.22V93.1H273.02V0.199994ZM252.02 32.8H276.82V43.5H252.02V32.8ZM211.92 7.5H225.12V29.9H243.32V7.5H256.42V71.3H211.92V7.5ZM225.12 40.2V60.6H243.32V40.2H225.12ZM334.912 5.6H346.512V12.3C346.512 32.4 332.212 50.2 308.212 54.9L302.512 43.9C323.412 40.3 334.912 25.6 334.912 12.3V5.6ZM337.612 5.6H349.112V12.3C349.112 25.9 360.512 40.3 381.512 43.9L375.812 54.9C351.812 50.2 337.612 32.7 337.612 12.3V5.6ZM300.612 70.8H384.412V81.6H300.612V70.8ZM392.604 71.9H476.404V82.7H392.604V71.9ZM427.704 54.4H441.004V76.3H427.704V54.4ZM402.004 6.3H467.004V37.1H415.404V52.7H402.204V26.7H453.804V16.8H402.004V6.3ZM402.204 47.4H469.104V58.1H402.204V47.4ZM751.025 0.299999H764.225V92.9H751.025V0.299999ZM761.225 36.4H777.625V47.5H761.225V36.4ZM691.225 14H745.125V24.6H691.225V14ZM718.325 29.8C731.825 29.8 741.825 39 741.825 51.9C741.825 64.8 731.825 74 718.325 74C704.825 74 694.825 64.8 694.825 51.9C694.825 39 704.825 29.8 718.325 29.8ZM718.325 40.6C712.025 40.6 707.525 44.8 707.525 51.9C707.525 59 712.025 63.2 718.325 63.2C724.625 63.2 729.125 59 729.125 51.9C729.125 44.8 724.625 40.6 718.325 40.6ZM711.625 1.8H724.925V18H711.625V1.8ZM847.417 0.299999H860.817V92.9H847.417V0.299999ZM820.117 9.89999H833.317C833.317 38.2 823.717 61.4 790.817 77.3L783.917 66.7C810.517 53.9 820.117 37.1 820.117 12.3V9.89999ZM788.817 9.89999H826.417V20.4H788.817V9.89999Z" fill="white"/>
<path d="M567.041 0.299999H580.241V92.9H567.041V0.299999ZM577.241 36.4H593.641V47.5H577.241V36.4ZM507.241 14H561.141V24.6H507.241V14ZM534.341 29.8C547.841 29.8 557.841 39 557.841 51.9C557.841 64.8 547.841 74 534.341 74C520.841 74 510.841 64.8 510.841 51.9C510.841 39 520.841 29.8 534.341 29.8ZM534.341 40.6C528.041 40.6 523.541 44.8 523.541 51.9C523.541 59 528.041 63.2 534.341 63.2C540.641 63.2 545.141 59 545.141 51.9C545.141 44.8 540.641 40.6 534.341 40.6ZM527.641 1.8H540.941V18H527.641V1.8ZM607.833 8.09999H666.433V18.8H607.833V8.09999ZM599.733 71H683.433V81.8H599.733V71ZM617.233 41.8H630.433V74.4H617.233V41.8ZM662.533 8.09999H675.933V17.2C675.933 28.4 675.933 41.2 672.633 60L659.433 58.7C662.533 41.1 662.533 28.1 662.533 17.2V8.09999ZM640.133 41.8H653.233V74.4H640.133V41.8Z" fill="#00FF7C"/>
</g>
<defs>
<filter id="filter0_d_1_36" x="0.0906372" y="0.199951" width="860.727" height="92.9001" filterUnits="userSpaceOnUse" color-interpolation-filters="sRGB">
<feFlood flood-opacity="0" result="BackgroundImageFix"/>
<feColorMatrix in="SourceAlpha" type="matrix" values="0 0 0 0 0 0 0 0 0 0 0 0 0 0 0 0 0 0 127 0" result="hardAlpha"/>
<feOffset/>
<feComposite in2="hardAlpha" operator="out"/>
<feColorMatrix type="matrix" values="0 0 0 0 0 0 0 0 0 0 0 0 0 0 0 0 0 0 1 0"/>
<feBlend mode="normal" in2="BackgroundImageFix" result="effect1_dropShadow_1_36"/>
<feBlend mode="normal" in="SourceGraphic" in2="effect1_dropShadow_1_36" result="shape"/>
</filter>
</defs>
</svg>
