<svg width="382" height="29" viewBox="0 0 382 29" fill="none" xmlns="http://www.w3.org/2000/svg">
<g filter="url(#filter0_d_50_151)">
<path d="M19.4985 0.89H23.2785V28.67H19.4985V0.89ZM15.7785 11.57H20.3985V14.78H15.7785V11.57ZM13.2885 1.37H16.9785V27.35H13.2885V1.37ZM0.208516 19.13H2.15852C5.57852 19.13 8.42852 19.01 11.7285 18.41L12.0285 21.65C8.66852 22.31 5.72852 22.4 2.15852 22.4H0.208516V19.13ZM0.208516 4.1H10.4685V7.31H4.16852V20.69H0.208516V4.1ZM41.9062 8.06H48.3862V11.27H41.9062V8.06ZM46.2862 0.919999H50.2762V21.17H46.2862V0.919999ZM31.9462 25.01H50.9062V28.19H31.9462V25.01ZM31.9462 19.46H35.9362V26.9H31.9462V19.46ZM33.4462 4.55H36.6862V6.29C36.6862 11.51 34.2262 16.34 28.8862 18.11L26.8762 14.93C31.4662 13.43 33.4462 9.8 33.4462 6.29V4.55ZM34.2862 4.55H37.4962V6.29C37.4962 9.53 39.3862 12.98 43.7662 14.45L41.8162 17.57C36.6562 15.86 34.2862 11.24 34.2862 6.29V4.55ZM27.9562 2.78H42.8962V5.93H27.9562V2.78ZM74.6938 0.89H78.4738V28.67H74.6938V0.89ZM70.9738 11.57H75.5938V14.78H70.9738V11.57ZM68.4838 1.37H72.1738V27.35H68.4838V1.37ZM55.4038 19.13H57.3538C60.7738 19.13 63.6238 19.01 66.9238 18.41L67.2238 21.65C63.8638 22.31 60.9238 22.4 57.3538 22.4H55.4038V19.13ZM55.4038 4.1H65.6638V7.31H59.3638V20.69H55.4038V4.1ZM286.518 0.919999H290.508V21.68H286.518V0.919999ZM289.368 9.38H294.198V12.65H289.368V9.38ZM268.638 3.8H284.988V6.92H268.638V3.8ZM276.828 7.91C280.818 7.91 283.638 10.1 283.638 13.28C283.638 16.46 280.818 18.62 276.828 18.62C272.808 18.62 269.988 16.46 269.988 13.28C269.988 10.1 272.808 7.91 276.828 7.91ZM276.828 10.94C275.058 10.94 273.828 11.78 273.828 13.28C273.828 14.78 275.058 15.59 276.828 15.59C278.598 15.59 279.828 14.78 279.828 13.28C279.828 11.78 278.598 10.94 276.828 10.94ZM274.818 0.859998H278.808V5.33H274.818V0.859998ZM272.598 25.01H291.498V28.19H272.598V25.01ZM272.598 20.12H276.588V26.39H272.598V20.12Z" fill="#00FF7C"/>
<path d="M108.515 0.859998H112.475V28.73H108.515V0.859998ZM102.215 10.64H109.655V13.85H102.215V10.64ZM90.1848 3.05H94.1448V9.77H99.6048V3.05H103.535V22.19H90.1848V3.05ZM94.1448 12.86V18.98H99.6048V12.86H94.1448ZM127.083 2.48H130.562V4.49C130.562 10.52 126.273 15.86 119.073 17.27L117.363 13.97C123.633 12.89 127.083 8.48 127.083 4.49V2.48ZM127.893 2.48H131.343V4.49C131.343 8.57 134.763 12.89 141.063 13.97L139.353 17.27C132.153 15.86 127.893 10.61 127.893 4.49V2.48ZM116.793 22.04H141.933V25.28H116.793V22.04ZM153.3 2.72C157.68 2.72 160.95 5.57 160.95 9.56C160.95 13.58 157.68 16.43 153.3 16.43C148.95 16.43 145.62 13.58 145.62 9.56C145.62 5.57 148.95 2.72 153.3 2.72ZM153.3 6.14C151.17 6.14 149.55 7.4 149.55 9.56C149.55 11.75 151.17 13.01 153.3 13.01C155.43 13.01 157.05 11.75 157.05 9.56C157.05 7.4 155.43 6.14 153.3 6.14ZM163.56 0.859998H167.55V28.73H163.56V0.859998ZM144.96 23.09L144.48 19.88C149.37 19.88 156.18 19.82 162.03 18.95L162.33 21.83C156.3 23.03 149.76 23.09 144.96 23.09ZM193.961 7.61H199.241V10.85H193.961V7.61ZM198.161 0.89H202.151V17.39H198.161V0.89ZM192.731 17.99C198.611 17.99 202.241 20 202.241 23.36C202.241 26.75 198.611 28.7 192.731 28.7C186.851 28.7 183.221 26.75 183.221 23.36C183.221 20 186.851 17.99 192.731 17.99ZM192.731 21.02C189.131 21.02 187.211 21.77 187.211 23.36C187.211 24.92 189.131 25.67 192.731 25.67C196.361 25.67 198.281 24.92 198.281 23.36C198.281 21.77 196.361 21.02 192.731 21.02ZM185.321 3.68H188.561V5.42C188.561 10.73 186.101 15.59 180.791 17.39L178.751 14.24C183.341 12.68 185.321 8.99 185.321 5.42V3.68ZM186.161 3.68H189.371V5.42C189.371 8.69 191.261 12.08 195.641 13.55L193.691 16.7C188.531 14.99 186.161 10.37 186.161 5.42V3.68ZM179.831 2.57H194.771V5.75H179.831V2.57ZM206.529 22.22H231.669V25.46H206.529V22.22ZM217.059 16.28H221.049V23H217.059V16.28ZM209.169 2.66H213.129V6.92H224.979V2.66H228.939V17.12H209.169V2.66ZM213.129 10.04V13.94H224.979V10.04H213.129ZM234.096 13.34H259.266V16.25H234.096V13.34ZM236.916 17.63H256.266V24.23H240.936V26.6H236.976V21.71H252.336V20.33H236.916V17.63ZM236.976 25.76H257.046V28.46H236.976V25.76ZM237.186 1.37H256.206V7.91H241.176V10.19H237.216V5.42H252.276V4.04H237.186V1.37ZM237.216 9.35H256.716V12.05H237.216V9.35ZM306.059 2.15H323.639V5.27H306.059V2.15ZM303.239 13.43H328.259V16.58H303.239V13.43ZM312.509 8.3H316.469V13.91H312.509V8.3ZM321.329 2.15H325.289V4.31C325.289 6.44 325.289 8.87 324.629 11.9L320.669 11.51C321.329 8.54 321.329 6.41 321.329 4.31V2.15ZM313.619 18.23H317.039V19.04C317.039 23.84 313.169 27.65 306.119 28.58L304.679 25.49C310.859 24.77 313.619 21.86 313.619 19.04V18.23ZM314.189 18.23H317.609V19.04C317.609 21.86 320.399 24.77 326.579 25.49L325.169 28.58C318.059 27.65 314.189 23.84 314.189 19.04V18.23ZM341.876 11.12H346.436V14.33H341.876V11.12ZM350.846 0.89H354.656V28.67H350.846V0.89ZM345.176 1.31H348.926V27.41H345.176V1.31ZM337.016 2.84C340.706 2.84 343.076 6.65 343.076 12.92C343.076 19.22 340.706 23.03 337.016 23.03C333.356 23.03 331.016 19.22 331.016 12.92C331.016 6.65 333.356 2.84 337.016 2.84ZM337.016 6.59C335.516 6.59 334.646 8.69 334.646 12.92C334.646 17.18 335.516 19.25 337.016 19.25C338.576 19.25 339.446 17.18 339.446 12.92C339.446 8.69 338.576 6.59 337.016 6.59ZM372.384 9.56H379.704V12.77H372.384V9.56ZM364.824 3.02H368.064V7.04C368.064 14.03 365.694 20.48 360.474 23.09L357.984 19.88C362.724 17.69 364.824 12.32 364.824 7.04V3.02ZM365.664 3.02H368.844V7.04C368.844 12.32 370.854 17.39 375.444 19.43L373.074 22.61C367.854 20.09 365.664 13.97 365.664 7.04V3.02ZM377.724 0.859998H381.684V28.73H377.724V0.859998Z" fill="white"/>
</g>
<defs>
<filter id="filter0_d_50_151" x="0.208496" y="0.859863" width="381.475" height="27.8701" filterUnits="userSpaceOnUse" color-interpolation-filters="sRGB">
<feFlood flood-opacity="0" result="BackgroundImageFix"/>
<feColorMatrix in="SourceAlpha" type="matrix" values="0 0 0 0 0 0 0 0 0 0 0 0 0 0 0 0 0 0 127 0" result="hardAlpha"/>
<feOffset/>
<feComposite in2="hardAlpha" operator="out"/>
<feColorMatrix type="matrix" values="0 0 0 0 0 0 0 0 0 0 0 0 0 0 0 0 0 0 1 0"/>
<feBlend mode="normal" in2="BackgroundImageFix" result="effect1_dropShadow_50_151"/>
<feBlend mode="normal" in="SourceGraphic" in2="effect1_dropShadow_50_151" result="shape"/>
</filter>
</defs>
</svg>
