<svg width="269" height="66" viewBox="0 0 269 66" fill="none" xmlns="http://www.w3.org/2000/svg">
<g filter="url(#filter0_d_4_13)">
<path d="M28.8904 40.73C42.8904 40.73 51.8504 45.35 51.8504 53.05C51.8504 60.61 42.8904 65.23 28.8904 65.23C14.8904 65.23 5.93035 60.61 5.93035 53.05C5.93035 45.35 14.8904 40.73 28.8904 40.73ZM28.8904 47.73C20.1404 47.73 15.1704 49.55 15.1704 53.05C15.1704 56.48 20.1404 58.23 28.8904 58.23C37.6404 58.23 42.6104 56.48 42.6104 53.05C42.6104 49.55 37.6404 47.73 28.8904 47.73ZM6.63035 3.28H47.6504V10.63H6.63035V3.28ZM0.0503518 29.32H58.4304V36.74H0.0503518V29.32ZM21.6804 18.05H30.9204V31.21H21.6804V18.05ZM42.2604 3.28H51.5004V8.6C51.5004 13.71 51.5004 19.24 49.7504 25.96L40.5104 24.98C42.2604 18.33 42.2604 13.64 42.2604 8.6V3.28ZM79.9149 10.63H87.3349V17.91C87.3349 32.89 81.2449 47.52 69.0649 53.05L63.8149 45.7C74.6649 40.87 79.9149 28.9 79.9149 17.91V10.63ZM82.0149 10.63H89.3649V17.91C89.3649 28.41 94.5449 39.61 105.395 44.09L100.355 51.44C88.0349 46.12 82.0149 32.33 82.0149 17.91V10.63ZM66.4049 6.64H102.735V14.27H66.4049V6.64ZM108.755 0.409999H118.135V65.23H108.755V0.409999ZM159.461 5.38H167.021V14.83C167.021 30.86 161.421 45.91 149.171 51.93L143.571 44.44C154.491 39.33 159.461 26.87 159.461 14.83V5.38ZM161.351 5.38H168.771V14.83C168.771 26.45 173.391 38.28 183.751 43.32L178.151 50.74C166.461 44.79 161.351 30.37 161.351 14.83V5.38ZM186.341 0.409999H195.721V65.23H186.341V0.409999ZM193.621 25.33H205.101V33.1H193.621V25.33ZM251.015 0.409999H260.325V41.5H251.015V0.409999ZM257.735 16.93H268.935V24.56H257.735V16.93ZM239.255 42.2C252.625 42.2 261.025 46.47 261.025 53.75C261.025 60.96 252.625 65.23 239.255 65.23C225.885 65.23 217.485 60.96 217.485 53.75C217.485 46.47 225.885 42.2 239.255 42.2ZM239.255 49.2C231.065 49.2 226.725 50.67 226.725 53.75C226.725 56.83 231.065 58.3 239.255 58.3C247.445 58.3 251.785 56.83 251.785 53.75C251.785 50.67 247.445 49.2 239.255 49.2ZM209.295 6.57H247.445V13.78H209.295V6.57ZM228.405 15.95C237.785 15.95 244.295 20.64 244.295 27.57C244.295 34.57 237.785 39.19 228.405 39.19C218.955 39.19 212.445 34.57 212.445 27.57C212.445 20.64 218.955 15.95 228.405 15.95ZM228.405 22.74C224.205 22.74 221.405 24.42 221.405 27.57C221.405 30.72 224.205 32.4 228.405 32.4C232.535 32.4 235.405 30.72 235.405 27.57C235.405 24.42 232.535 22.74 228.405 22.74ZM223.715 -0.0100038H233.025V10.42H223.715V-0.0100038Z" fill="#003319"/>
</g>
<defs>
<filter id="filter0_d_4_13" x="0.050293" y="-0.0100098" width="268.885" height="65.24" filterUnits="userSpaceOnUse" color-interpolation-filters="sRGB">
<feFlood flood-opacity="0" result="BackgroundImageFix"/>
<feColorMatrix in="SourceAlpha" type="matrix" values="0 0 0 0 0 0 0 0 0 0 0 0 0 0 0 0 0 0 127 0" result="hardAlpha"/>
<feOffset/>
<feComposite in2="hardAlpha" operator="out"/>
<feColorMatrix type="matrix" values="0 0 0 0 0 0 0 0 0 0 0 0 0 0 0 0 0 0 1 0"/>
<feBlend mode="normal" in2="BackgroundImageFix" result="effect1_dropShadow_4_13"/>
<feBlend mode="normal" in="SourceGraphic" in2="effect1_dropShadow_4_13" result="shape"/>
</filter>
</defs>
</svg>
