<svg width="185" height="38" viewBox="0 0 185 38" fill="none" xmlns="http://www.w3.org/2000/svg">
<path d="M22.6214 0.636363H30.3097V24.2514C30.3097 26.9029 29.6764 29.223 28.4098 31.2116C27.1551 33.2003 25.3973 34.7509 23.1364 35.8636C20.8755 36.9645 18.2417 37.5149 15.2351 37.5149C12.2166 37.5149 9.57694 36.9645 7.31605 35.8636C5.05516 34.7509 3.29735 33.2003 2.04261 31.2116C0.787879 29.223 0.160511 26.9029 0.160511 24.2514V0.636363H7.84872V23.5945C7.84872 24.9794 8.15057 26.2105 8.75426 27.2876C9.36979 28.3648 10.2339 29.2112 11.3466 29.8267C12.4593 30.4422 13.7554 30.75 15.2351 30.75C16.7266 30.75 18.0227 30.4422 19.1236 29.8267C20.2363 29.2112 21.0945 28.3648 21.6982 27.2876C22.3137 26.2105 22.6214 24.9794 22.6214 23.5945V0.636363ZM67.0506 0.636363V37H60.41L44.5897 14.1129H44.3233V37H36.6351V0.636363H43.3823L59.0783 23.5057H59.3979V0.636363H67.0506ZM87.4164 37V0.636363H101.976C104.651 0.636363 106.883 1.03291 108.67 1.82599C110.457 2.61908 111.801 3.71993 112.7 5.12855C113.6 6.52533 114.05 8.13518 114.05 9.9581C114.05 11.3786 113.766 12.6274 113.198 13.7045C112.629 14.7699 111.848 15.6458 110.854 16.3324C109.871 17.0071 108.747 17.4865 107.48 17.7706V18.1257C108.865 18.1849 110.161 18.5755 111.369 19.2976C112.588 20.0196 113.576 21.0317 114.334 22.3338C115.092 23.6241 115.47 25.1629 115.47 26.9503C115.47 28.8797 114.991 30.602 114.032 32.1172C113.085 33.6205 111.682 34.8101 109.824 35.6861C107.966 36.562 105.675 37 102.953 37H87.4164ZM95.1046 30.7145H101.372C103.515 30.7145 105.077 30.3061 106.06 29.4893C107.042 28.6607 107.534 27.5599 107.534 26.1868C107.534 25.1806 107.291 24.2929 106.806 23.5234C106.32 22.754 105.628 22.1503 104.728 21.7124C103.84 21.2744 102.781 21.0554 101.55 21.0554H95.1046V30.7145ZM95.1046 15.853H100.804C101.858 15.853 102.793 15.6695 103.61 15.3026C104.438 14.9238 105.089 14.3911 105.563 13.7045C106.048 13.018 106.291 12.1953 106.291 11.2365C106.291 9.92259 105.823 8.86316 104.888 8.05824C103.965 7.25331 102.651 6.85085 100.946 6.85085H95.1046V15.853ZM142.934 0.636363H150.622V24.2514C150.622 26.9029 149.989 29.223 148.722 31.2116C147.468 33.2003 145.71 34.7509 143.449 35.8636C141.188 36.9645 138.554 37.5149 135.548 37.5149C132.529 37.5149 129.889 36.9645 127.629 35.8636C125.368 34.7509 123.61 33.2003 122.355 31.2116C121.1 29.223 120.473 26.9029 120.473 24.2514V0.636363H128.161V23.5945C128.161 24.9794 128.463 26.2105 129.067 27.2876C129.682 28.3648 130.546 29.2112 131.659 29.8267C132.772 30.4422 134.068 30.75 135.548 30.75C137.039 30.75 138.335 30.4422 139.436 29.8267C140.549 29.2112 141.407 28.3648 142.011 27.2876C142.626 26.2105 142.934 24.9794 142.934 23.5945V0.636363ZM176.674 11.0945C176.532 9.66217 175.923 8.54948 174.845 7.75639C173.768 6.9633 172.306 6.56676 170.46 6.56676C169.205 6.56676 168.146 6.74432 167.281 7.09943C166.417 7.44271 165.754 7.92211 165.293 8.53764C164.843 9.15317 164.618 9.85156 164.618 10.6328C164.594 11.2839 164.731 11.852 165.026 12.3374C165.334 12.8227 165.754 13.2429 166.287 13.598C166.82 13.9413 167.435 14.2431 168.134 14.5036C168.832 14.7521 169.578 14.9652 170.371 15.1428L173.638 15.924C175.224 16.2791 176.68 16.7526 178.006 17.3445C179.332 17.9363 180.48 18.6643 181.45 19.5284C182.421 20.3925 183.173 21.4105 183.705 22.5824C184.25 23.7543 184.528 25.0978 184.54 26.6129C184.528 28.8383 183.96 30.7678 182.835 32.4013C181.723 34.023 180.113 35.2836 178.006 36.1832C175.911 37.071 173.383 37.5149 170.424 37.5149C167.489 37.5149 164.932 37.0651 162.754 36.1655C160.588 35.2659 158.895 33.9342 157.676 32.1705C156.468 30.3949 155.835 28.1991 155.776 25.5831H163.215C163.298 26.8023 163.647 27.8203 164.263 28.6371C164.89 29.442 165.725 30.0516 166.767 30.4659C167.82 30.8684 169.01 31.0696 170.335 31.0696C171.637 31.0696 172.768 30.8802 173.727 30.5014C174.697 30.1226 175.449 29.5959 175.982 28.9212C176.514 28.2464 176.781 27.4711 176.781 26.5952C176.781 25.7784 176.538 25.0919 176.053 24.5355C175.579 23.9792 174.881 23.5057 173.958 23.1151C173.046 22.7244 171.927 22.3693 170.602 22.0497L166.642 21.0554C163.576 20.3097 161.156 19.1437 159.38 17.5575C157.605 15.9714 156.723 13.8348 156.735 11.1477C156.723 8.94602 157.309 7.02249 158.492 5.37713C159.688 3.73177 161.327 2.44744 163.411 1.52415C165.494 0.600851 167.861 0.139203 170.513 0.139203C173.212 0.139203 175.567 0.600851 177.58 1.52415C179.604 2.44744 181.178 3.73177 182.303 5.37713C183.427 7.02249 184.007 8.92827 184.043 11.0945H176.674Z" fill="white"/>
<path d="M81.0909 0.636363V37H73.4027V0.636363H81.0909Z" fill="#00FF7C"/>
</svg>
